<?xml version="1.0" encoding="UTF-8"?>
<svg id="Ebene_2" data-name="Ebene 2" xmlns="http://www.w3.org/2000/svg" viewBox="0 0 210.383 95.284">
  <g id="Ebene_1-2" data-name="Ebene 1">
    <g>
      <g>
        <path d="M84.967,10.795l-11.233,41.476c-1.512,4.968-5.112,8.929-10.081,8.929H25.634c-4.968,0-8.641-4.032-10.081-8.929L4.32,10.795h16.777l11.233,39.171h24.626l11.233-39.171h16.777Z" style="fill: #ed7c31; stroke-width: 0px;"/>
        <path d="M96.48,61.199V10.795h16.777v50.404h-16.777Z" style="fill: #ed7c31; stroke-width: 0px;"/>
        <path d="M204.63,22.028h-30.243v39.171h-17.93V22.028h-30.243v-11.233h78.415v11.233Z" style="fill: #ed7c31; stroke-width: 0px;"/>
      </g>
      <g>
        <path d="M63.014,84.5l-3.781.738,2.395,2.053h3.637v2.809h-4.394c-.72,0-1.08-.27-1.584-.648l-3.997-3.439-5.149,1.008v3.079h-4.483v-3.637c0-1.242.864-1.962,2.233-2.25l12.892-2.521v-1.386h-15.125v-2.809h17.357c1.243,0,2.251,1.008,2.251,2.232v2.521c0,1.243-1.099,2.035-2.251,2.251Z" style="fill: #ed7c31; stroke-width: 0px;"/>
        <path d="M89.979,80.575v6.446c0,1.963-1.386,3.079-3.637,3.079h-14.566c-2.233,0-3.637-1.116-3.637-3.079v-6.446c0-1.962,1.404-3.079,3.637-3.079h14.566c2.25,0,3.637,1.116,3.637,3.079ZM85.785,81.421c0-.63-.504-1.116-1.117-1.116h-11.199c-.63,0-1.134.486-1.134,1.116v4.753c0,.63.504,1.117,1.134,1.117h11.199c.612,0,1.117-.486,1.117-1.117v-4.753Z" style="fill: #ed7c31; stroke-width: 0px;"/>
        <path d="M114.711,80.575v6.446c0,1.963-1.386,3.079-3.637,3.079h-14.566c-2.233,0-3.637-1.116-3.637-3.079v-6.446c0-1.962,1.404-3.079,3.637-3.079h14.566c2.25,0,3.637,1.116,3.637,3.079ZM110.516,81.421c0-.63-.504-1.116-1.116-1.116h-11.199c-.63,0-1.134.486-1.134,1.116v4.753c0,.63.504,1.117,1.134,1.117h11.199c.612,0,1.116-.486,1.116-1.117v-4.753Z" style="fill: #ed7c31; stroke-width: 0px;"/>
        <path d="M142.252,79.729v10.371h-4.195v-9.795h-2.25l-1.819,7.562c-.378,1.224-1.278,2.232-2.521,2.232h-3.079c-1.242,0-2.143-1.008-2.521-2.232l-1.819-7.562h-2.25v9.795h-4.195v-10.371c0-1.225,1.008-2.232,2.232-2.232h5.474c1.243,0,2.143,1.008,2.521,2.232l1.818,7.562h.558l1.819-7.562c.378-1.225,1.278-2.232,2.521-2.232h5.456c1.243,0,2.251,1.008,2.251,2.232Z" style="fill: #ed7c31; stroke-width: 0px;"/>
        <path d="M149.608,80.305v1.944h12.874c1.242,0,2.25,1.009,2.25,2.251v3.367c0,1.224-1.008,2.232-2.25,2.232h-17.357v-2.809h15.125v-2.233h-12.892c-1.224,0-2.232-1.008-2.232-2.233v-3.097c0-1.225,1.008-2.232,2.232-2.232h17.375v2.809h-15.125Z" style="fill: #ed7c31; stroke-width: 0px;"/>
      </g>
    </g>
  </g>
</svg>